<svg xmlns="http://www.w3.org/2000/svg" viewBox="0 0 100 100">
  <circle cx="50" cy="50" r="50" fill="#F7931A"/>
  <path fill="#FFFFFF" d="M67.8 44.3c.9-6.2-3.8-9.5-10.3-11.7l2.1-8.4-5.1-1.3-2 8.2c-1.4-.3-2.8-.6-4.1-1l2-8.2-5.1-1.3-2.1 8.4c-1.1-.3-2.2-.5-3.3-.8l0 0-7.1-1.8-1.4 5.5s3.8.9 3.7.9c2.1.5 2.4 1.9 2.4 3l-2.4 9.6c.1 0 .3.1.5.1-.2 0-.3-.1-.5-.1l-3.4 13.5c-.3.6-.9 1.6-2.3 1.2.1.1-3.7-.9-3.7-.9l-2.5 5.9 6.7 1.7c1.2.3 2.5.6 3.7.9l-2.1 8.5 5.1 1.3 2.1-8.4c1.4.4 2.8.7 4.1 1l-2.1 8.4 5.1 1.3 2.1-8.5c8.7 1.6 15.3 1 18-6.9 2.2-6.3-.1-10-4.7-12.4 3.3-.8 5.8-3 6.5-7.5zM56.3 56.8c-1.6 6.3-12.2 2.9-15.6 2l2.8-11.2c3.5.9 14.5 2.6 12.8 9.2zm1.6-16.6c-1.4 5.7-10.3 2.8-13.1 2.1l2.5-10.1c2.9.7 12.1 2 10.6 8z"/>
</svg>

