<svg xmlns="http://www.w3.org/2000/svg" viewBox="0 0 100 100">
  <circle cx="50" cy="50" r="50" fill="#000000"/>
  <defs>
    <linearGradient id="solGradient" x1="0%" y1="0%" x2="100%" y2="100%">
      <stop offset="0%" stop-color="#9945FF"/>
      <stop offset="50%" stop-color="#14F195"/>
      <stop offset="100%" stop-color="#00D1FF"/>
    </linearGradient>
  </defs>
  <g transform="translate(20, 28) scale(0.6)">
    <path fill="url(#solGradient)" d="M16.2 70.8c.6-.6 1.4-.9 2.2-.9h77.8c1.4 0 2.1 1.7 1.1 2.6l-16 15.7c-.6.6-1.4.9-2.2.9H1.3c-1.4 0-2.1-1.7-1.1-2.6l16-15.7z"/>
    <path fill="url(#solGradient)" d="M16.2 11.7c.6-.6 1.4-.9 2.2-.9h77.8c1.4 0 2.1 1.7 1.1 2.6l-16 15.7c-.6.6-1.4.9-2.2.9H1.3c-1.4 0-2.1-1.7-1.1-2.6l16-15.7z"/>
    <path fill="url(#solGradient)" d="M81 41.3c-.6-.6-1.4-.9-2.2-.9H1.1c-1.4 0-2.1 1.7-1.1 2.6l16 15.7c.6.6 1.4.9 2.2.9h77.8c1.4 0 2.1-1.7 1.1-2.6L81 41.3z"/>
  </g>
</svg>

